<?xml version="1.0" encoding="UTF-8"?>
<svg id="Layer_1" data-name="Layer 1" xmlns="http://www.w3.org/2000/svg" viewBox="0 0 375 1500">
  <defs>
    <style>
      .cls-1 {
        fill: #2f3031;
        stroke-width: 0px;
      }
    </style>
  </defs>
  <g id="i">
    <path id="i-body" class="cls-1" d="M54.92,1179.92h0c35.16-35.16,54.92-82.85,54.92-132.58v-32.17c0-49.73-19.75-97.42-54.92-132.58h0C19.75,847.42,0,799.73,0,750H0C0,700.27,19.75,652.58,54.92,617.42h0c35.16-35.16,82.85-54.92,132.58-54.92h0c49.73,0,97.42,19.75,132.58,54.92h0c35.16,35.16,54.92,82.85,54.92,132.58h0c0,49.73-19.75,97.42-54.92,132.58h0c-35.16,35.16-54.92,82.85-54.92,132.58v32.17c0,49.73,19.75,97.42,54.92,132.58h0c35.16,35.16,54.92,82.85,54.92,132.58h0c0,49.73-19.75,97.42-54.92,132.58h0c-35.16,35.16-82.85,54.92-132.58,54.92h0c-49.73,0-97.42-19.75-132.58-54.92h0C19.75,1409.92,0,1362.23,0,1312.5H0C0,1262.77,19.75,1215.08,54.92,1179.92Z"/>
    <path id="i-dot" class="cls-1" d="M187.5,0h0c-49.73,0-97.42,19.75-132.58,54.92h0C19.75,90.08,0,137.77,0,187.5H0c0,49.73,19.75,97.42,54.92,132.58h0c35.16,35.16,82.85,54.92,132.58,54.92h0c49.73,0,97.42-19.75,132.58-54.92h0c35.16-35.16,54.92-82.85,54.92-132.58h0c0-49.73-19.75-97.42-54.92-132.58h0C284.92,19.75,237.23,0,187.5,0Z"/>
  </g>
</svg>