<?xml version="1.0" encoding="UTF-8"?>
<svg id="Layer_1" data-name="Layer 1" xmlns="http://www.w3.org/2000/svg" viewBox="0 0 375 1500">
  <defs>
    <style>
      .cls-1 {
        fill: #2f3031;
        stroke-width: 0px;
      }
    </style>
  </defs>
  <g id="s-right">
    <path class="cls-1" d="M320.08,805.08c-35.16-35.16-82.85-54.92-132.58-54.92h0c-49.73,0-97.42-19.75-132.58-54.92h0C19.75,660.08,0,612.39,0,562.66v375H0v375C0,1262.94,19.75,1215.24,54.92,1180.08h0c35.16-35.16,82.85-54.92,132.58-54.92h0c49.73,0,97.42-19.75,132.58-54.92h0c35.16-35.16,54.92-82.85,54.92-132.58h0c0-49.73-19.75-97.42-54.92-132.58h0Z"/>
    <path class="cls-1" d="M0,187.66v375C0,512.94,19.75,465.24,54.92,430.08h0c35.16-35.16,82.85-54.92,132.58-54.92h0c49.73,0,97.42-19.75,132.58-54.92h0c35.16-35.16,54.92-82.85,54.92-132.58h0c0-49.73-19.75-97.42-54.92-132.58h0C284.92,19.92,237.23.16,187.5.16h0C137.77.16,90.08,19.92,54.92,55.08h0C19.75,90.24,0,137.94,0,187.66H0Z"/>
  </g>
</svg>