<?xml version="1.0" encoding="UTF-8"?>
<svg id="Layer_1" data-name="Layer 1" xmlns="http://www.w3.org/2000/svg" viewBox="0 0 375 1500">
  <defs>
    <style>
      .cls-1 {
        fill: #2f3031;
        stroke-width: 0px;
      }
    </style>
  </defs>
  <g id="s-left">
    <path class="cls-1" d="M54.92,695.08c35.16,35.16,82.85,54.92,132.58,54.92h0c49.73,0,97.42,19.75,132.58,54.92h0c35.16,35.16,54.92,82.85,54.92,132.58v-375h0V187.5c0,49.73-19.75,97.42-54.92,132.58h0c-35.16,35.16-82.85,54.92-132.58,54.92h0c-49.73,0-97.42,19.75-132.58,54.92h0C19.75,465.08,0,512.77,0,562.5H0C0,612.23,19.75,659.92,54.92,695.08h0Z"/>
    <path class="cls-1" d="M375,1312.5v-375c0,49.73-19.75,97.42-54.92,132.58h0c-35.16,35.16-82.85,54.92-132.58,54.92h0c-49.73,0-97.42,19.75-132.58,54.92h0C19.75,1215.08,0,1262.77,0,1312.5H0C0,1362.23,19.75,1409.92,54.92,1445.08h0c35.16,35.16,82.85,54.92,132.58,54.92h0c49.73,0,97.42-19.75,132.58-54.92h0c35.16-35.16,54.92-82.85,54.92-132.58h0Z"/>
  </g>
</svg>